<?xml version="1.0" standalone="no"?>
<!DOCTYPE svg PUBLIC "-//W3C//DTD SVG 20010904//EN"
 "http://www.w3.org/TR/2001/REC-SVG-20010904/DTD/svg10.dtd">
<svg version="1.0" xmlns="http://www.w3.org/2000/svg"
 width="325.000000pt" height="325.000000pt" viewBox="0 0 325.000000 325.000000"
 preserveAspectRatio="xMidYMid meet">
<metadata>
Created by potrace 1.14, written by Peter Selinger 2001-2017
</metadata>
<g transform="translate(0.000000,325.000000) scale(0.100000,-0.100000)"
fill="#000000" stroke="none">
<path d="M10 2332 c-6 -2 -10 -11 -10 -20 0 -15 12 -17 85 -16 l85 1 0 -667 0
-668 -85 2 c-76 2 -85 0 -85 -16 0 -10 8 -18 18 -19 9 0 339 -1 732 -1 782 0
804 1 940 56 212 86 362 277 398 507 l9 54 8 -50 c36 -229 164 -416 346 -504
194 -94 440 -88 580 15 l46 33 69 -50 c38 -27 76 -48 84 -47 13 3 15 34 15
204 1 193 0 201 -19 200 -13 -1 -23 -14 -33 -41 -61 -180 -188 -304 -336 -329
l-37 -7 0 661 0 662 33 -7 c115 -24 220 -114 286 -248 23 -46 41 -90 41 -100
0 -11 8 -17 23 -17 l23 0 0 200 c0 175 -2 200 -15 200 -9 0 -49 -20 -90 -44
l-74 -44 -31 23 c-81 60 -164 84 -284 83 -174 -3 -313 -60 -433 -178 -102
-100 -156 -204 -186 -359 l-17 -85 -12 70 c-52 300 -277 507 -588 540 -61 7
-1467 12 -1486 6z m548 -702 l-3 -665 -45 0 -45 0 -3 666 -2 666 50 -1 50 0
-2 -666z m566 636 c157 -77 243 -284 250 -602 8 -356 -77 -592 -241 -669 -46
-22 -73 -27 -154 -30 -55 -2 -99 -2 -99 0 0 3 28 18 61 35 243 120 367 332
370 631 1 207 -59 373 -184 503 -50 51 -147 118 -199 137 -21 7 -38 16 -38 20
0 4 40 6 90 4 73 -2 99 -7 144 -29z m372 10 c172 -57 273 -301 272 -657 -1
-339 -80 -544 -242 -626 -41 -21 -66 -25 -160 -28 l-111 -4 62 29 c200 92 340
271 378 480 11 64 14 234 4 295 -36 230 -175 416 -381 509 l-53 24 90 -3 c52
-1 111 -9 141 -19z m-589 -206 c81 -179 102 -526 47 -760 -17 -70 -82 -220
-96 -220 -4 0 -8 242 -8 538 1 591 -2 572 57 442z m1621 -692 l-3 -263 -28 58
c-103 217 -105 667 -4 907 l32 75 3 -257 c1 -141 1 -375 0 -520z"/>
</g>
</svg>
