<?xml version="1.0" encoding="UTF-8"?>
<svg id="Layer_2" data-name="Layer 2" xmlns="http://www.w3.org/2000/svg" viewBox="0 0 324.59 141.7">
  <defs>
    <style>
      .cls-1 {
        fill: #fff;
        stroke-width: 0px;
      }
    </style>
  </defs>
  <g id="Layer_1-2" data-name="Layer 1">
    <path class="cls-1" d="M320.82,99.28c-1.6,5.28-3.62,10.21-6.07,14.81-2.45,4.6-5.42,8.62-8.88,12.05-3.47,3.44-7.51,6.12-12.15,8.05-3.45,1.44-7.3,2.34-11.55,2.71V4.87c4.81.56,9.27,2.03,13.39,4.43,5.37,3.13,10.03,7.53,13.99,13.2,3.96,5.67,7.07,12.32,9.34,19.92h3.77V1.84h-3.13l-14.72,9.2c-3.93-3.5-8.33-6.21-13.2-8.14-4.88-1.93-10.14-2.9-15.78-2.9-13.68,0-25.47,3.07-35.38,9.2-9.91,6.13-17.53,14.54-22.86,25.21-4.68,9.35-7.3,19.83-7.88,31.43-.63-11.81-3.42-22.33-8.39-31.56-5.69-10.56-13.84-18.79-24.46-24.7-10.31-5.73-22.64-8.68-36.96-8.84v-.03h-38.87c-.62-.01-1.25-.02-1.88-.02H0v3.66h16.96v133.27H0v3.66h80.04v.03h44.74s13.82,0,13.82,0c10.68,0,20.4-1.69,29.15-5.06,8.75-3.37,16.26-8.17,22.54-14.39,6.28-6.22,11.11-13.62,14.48-22.21,2.85-7.26,4.48-15.2,4.93-23.82.58,11.61,3.21,22.1,7.88,31.45,5.34,10.67,12.96,19.08,22.86,25.21,9.91,6.13,21.7,9.2,35.38,9.2,6.5,0,12.44-1.03,17.81-3.08,5.37-2.05,10.04-4.89,14.03-8.51l13.62,9.75h3.31v-40.58h-3.77ZM99.14,4.35c6.75,0,12.54,1.72,17.39,5.15,4.84,3.44,8.81,8.2,11.9,14.29,3.09,6.09,5.39,13.17,6.89,21.23,1.5,8.06,2.25,16.71,2.25,25.96s-.66,17.9-1.97,25.96c-1.31,8.06-3.45,15.13-6.42,21.23-2.97,6.09-6.9,10.86-11.81,14.29-4.91,3.44-10.98,5.15-18.23,5.15h-13.97c1.37-.44,2.72-.9,4.05-1.41,8.75-3.37,16.26-8.17,22.54-14.39,6.28-6.22,11.11-13.62,14.48-22.21,3.38-8.59,5.06-18.14,5.06-28.63,0-13.93-2.84-26.18-8.53-36.74-5.69-10.56-13.84-18.79-24.46-24.7-3.8-2.12-7.89-3.84-12.24-5.2h13.06ZM89.36,23.8c3.09,6.09,5.39,13.17,6.89,21.23,1.5,8.06,2.25,16.71,2.25,25.96s-.66,17.9-1.97,25.96c-1.31,8.06-3.45,15.13-6.42,21.23-1.42,2.92-3.07,5.52-4.94,7.83V17.07c1.54,2.03,2.94,4.26,4.19,6.73ZM46.11,137.62V4.35h9.92v133.27h-9.92ZM175.06,96.99c-1.31,8.06-3.45,15.13-6.42,21.23-2.97,6.09-6.9,10.86-11.81,14.29-4.91,3.44-10.98,5.15-18.23,5.15h-13.82s-.7,0-.7,0c.31-.1.63-.18.94-.29,1.21-.36,2.53-.69,3.66-1.13,8.75-3.37,16.26-8.17,22.54-14.39,6.28-6.22,11.11-13.62,14.48-22.21,3.38-8.59,5.06-18.14,5.06-28.63,0-13.93-2.84-26.18-8.53-36.74-5.69-10.56-13.84-18.79-24.46-24.7-3.8-2.12-7.89-3.84-12.24-5.2h13.06c6.75,0,12.54,1.72,17.39,5.15,4.84,3.44,8.81,8.2,11.9,14.29,3.09,6.09,5.39,13.17,6.89,21.23,1.5,8.06,2.25,16.71,2.25,25.96s-.66,17.9-1.97,25.96ZM243.57,95.23c-1.2-7.91-1.8-16.04-1.8-24.38s.6-16.55,1.8-24.43c1.2-7.88,3.16-14.97,5.89-21.26,1.05-2.41,2.24-4.63,3.56-6.66v104.7c-1.33-2.03-2.52-4.25-3.56-6.67-2.73-6.29-4.69-13.39-5.89-21.3Z"/>
  </g>
</svg>